<?xml version="1.0" standalone="no"?>
<!DOCTYPE svg PUBLIC "-//W3C//DTD SVG 20010904//EN"
 "http://www.w3.org/TR/2001/REC-SVG-20010904/DTD/svg10.dtd">
<svg version="1.0" xmlns="http://www.w3.org/2000/svg"
 width="141.000000pt" height="358.000000pt" viewBox="0 0 141.000000 358.000000"
 preserveAspectRatio="xMidYMid meet">

<g transform="translate(0.000000,358.000000) scale(0.100000,-0.100000)"
fill="#000000" stroke="none">
<path d="M415 3560 c-68 -34 -80 -64 -83 -220 -3 -145 4 -177 46 -195 20 -9
22 -17 22 -91 0 -93 3 -88 -121 -173 -214 -146 -292 -303 -268 -540 10 -101
16 -120 45 -148 37 -34 34 -102 -6 -143 l-30 -31 0 -475 0 -476 29 -27 c51
-48 53 -123 5 -180 l-25 -30 3 -324 3 -324 30 -48 c38 -62 95 -102 165 -117
77 -16 139 -4 201 38 52 34 52 34 73 16 33 -31 77 -49 143 -61 83 -15 190 6
251 50 l43 31 34 -31 c40 -35 90 -51 160 -51 98 1 173 46 221 132 l29 53 3
315 3 316 -30 38 c-26 32 -31 48 -31 91 0 44 5 57 30 83 l30 32 0 475 0 474
-30 31 c-24 25 -30 39 -30 75 0 31 6 51 19 64 37 37 44 65 49 192 4 109 2 137
-16 196 -12 37 -35 89 -52 115 -38 57 -126 139 -206 192 -112 75 -114 78 -114
173 0 63 3 83 13 83 8 0 22 9 33 21 17 19 19 38 19 169 0 162 -4 176 -69 224
-26 20 -43 21 -289 24 -246 2 -264 1 -302 -18z m536 -90 c17 -10 19 -22 19
-120 l0 -110 -265 0 -265 0 0 110 c0 93 3 110 18 119 23 14 467 14 493 1z
m-41 -437 c6 -123 12 -133 130 -214 121 -83 186 -149 224 -228 29 -63 31 -72
31 -188 0 -110 -2 -124 -21 -145 -37 -39 -48 -71 -48 -134 0 -48 6 -70 27
-107 49 -84 98 -77 -548 -77 -481 0 -575 2 -575 14 0 7 12 35 27 62 45 80 34
190 -26 258 -13 14 -16 41 -16 135 0 111 1 119 32 182 41 82 103 146 222 228
120 82 131 100 131 217 0 50 3 94 7 98 4 3 95 5 202 4 l196 -3 5 -102z m370
-1488 l0 -295 -575 0 -575 0 0 295 0 295 575 0 575 0 0 -295z m0 -415 c0 -10
-11 -35 -24 -54 -45 -66 -45 -163 0 -245 24 -43 24 -47 24 -330 0 -268 -1
-288 -20 -319 -42 -69 -139 -94 -207 -52 -39 23 -51 45 -58 101 -12 95 -93 88
-108 -8 -14 -83 -121 -135 -235 -113 -29 5 -63 16 -74 24 -30 21 -58 67 -58
94 0 39 -18 62 -48 62 -40 0 -52 -12 -59 -56 -9 -59 -31 -94 -68 -110 -72 -30
-149 -7 -192 56 -23 32 -23 39 -23 319 0 284 0 286 25 334 34 68 40 124 21
190 -9 30 -23 60 -31 67 -8 7 -15 23 -15 36 l0 24 575 0 c564 0 575 0 575 -20z"/>
</g>
</svg>
